<?xml version="1.0" encoding="utf-8"?>
<!-- Generator: Adobe Illustrator 16.0.0, SVG Export Plug-In . SVG Version: 6.00 Build 0)  -->
<!DOCTYPE svg PUBLIC "-//W3C//DTD SVG 1.1//EN" "http://www.w3.org/Graphics/SVG/1.1/DTD/svg11.dtd">
<svg version="1.1" xmlns="http://www.w3.org/2000/svg" xmlns:xlink="http://www.w3.org/1999/xlink" x="0px" y="0px" width="500px"
	 height="500px" viewBox="0 0 500 500" enable-background="new 0 0 500 500" xml:space="preserve">
<g id="Layer_1">
	<polygon points="500,0.198 0,500.199 0,314.176 314.176,0 	"/>
	<polygon fill="#FFFFFF" points="368.244,0 0,368.244 0,442.517 442.517,0 	"/>
	<polygon fill="#FFFFFF" points="342.793,0 0,342.794 0,356.423 356.422,0 	"/>
	<polygon fill="#FFFFFF" points="454.341,-0.001 0,454.341 0.001,467.969 467.969,0 	"/>
	<g>
		<path d="M82.305,323.559c-7.197-7.197-7.233-18.926,0.001-26.158c3.909-3.91,9.133-5.847,14.284-5.299
			c0.439,0,0.731,0.293,0.804,0.73l-0.036,5.955c0.037,0.475-0.365,0.805-0.803,0.73c-3.033-0.547-6.723,0.221-9.316,2.814
			c-4.275,4.275-3.763,11.143,0.694,15.6c4.458,4.457,11.325,4.969,15.601,0.693c2.776-2.775,3.616-6.172,3.105-9.826
			c-0.072-0.367,0.146-0.805,0.767-0.84l5.516-0.037c0.512,0,0.768,0.328,0.768,0.768c0.586,5.406-1.169,10.814-5.224,14.869
			C101.23,330.791,89.503,330.756,82.305,323.559z"/>
		<path d="M107.991,297.945c-7.234-7.234-7.27-18.962-0.036-26.195c7.197-7.197,18.925-7.162,26.158,0.072
			c7.197,7.197,7.197,18.889,0,26.086C126.88,305.143,115.188,305.143,107.991,297.945z M128.487,277.449
			c-4.457-4.457-11.289-4.934-15.526-0.694c-4.239,4.238-3.8,11.105,0.658,15.563c4.457,4.457,11.289,4.859,15.527,0.621
			C133.384,288.701,132.944,281.906,128.487,277.449z"/>
		<path d="M151.58,229.806l24.515,24.515c0.293,0.292,0.293,0.73,0,1.023l-4.566,4.566c-0.293,0.291-0.768,0.328-1.061,0.035
			l-12.275-12.275l6.138,18.926c0.11,0.475,0.036,1.06-0.254,1.352l-0.439,0.438l-0.109,0.109c-0.293,0.292-0.841,0.329-1.315,0.219
			l-19.072-6.137l12.349,12.349c0.292,0.292,0.256,0.768-0.036,1.059l-4.567,4.566c-0.293,0.293-0.731,0.293-1.023,0l-24.515-24.514
			c-0.292-0.293-0.329-0.768-0.037-1.06l3.361-3.361l1.133-1.133c0.292-0.292,0.913-0.401,1.352-0.256l22.762,8.074l-8.112-22.724
			c-0.146-0.439-0.037-1.061,0.256-1.352l2.704-2.705l1.754-1.753C150.812,229.477,151.287,229.513,151.58,229.806z"/>
		<path d="M180.993,249.348l-24.478-24.479c-0.292-0.292-0.292-0.804,0-1.096l4.567-4.566c0.292-0.293,0.767-0.256,1.06,0.037
			l24.479,24.477c0.292,0.293,0.328,0.768,0.036,1.061l-4.566,4.566C181.798,249.64,181.286,249.64,180.993,249.348z"/>
		<path d="M188.265,193.12l24.516,24.515c0.291,0.293,0.256,0.768-0.037,1.059l-3.252,3.253l-0.584,0.583
			c-0.33,0.33-0.914,0.477-1.426,0.402l-25.245-4.784l15.015,15.015c0.293,0.293,0.293,0.73,0,1.023l-4.565,4.566
			c-0.292,0.292-0.767,0.329-1.06,0.036l-24.516-24.515c-0.291-0.292-0.291-0.804,0-1.096l3.289-3.288l0.767-0.768
			c0.292-0.292,0.914-0.402,1.426-0.329l24.771,4.678l-14.725-14.725c-0.292-0.292-0.328-0.768-0.036-1.059l4.567-4.567
			C187.462,192.827,187.972,192.827,188.265,193.12z"/>
		<path d="M227.505,179.38l2.887,2.886l6.578,6.576c0.145,0.146,0.217,0.367,0.217,0.584c-0.326,4.349-4.676,10.084-7.158,12.569
			c-6.248,6.247-18.014,7.854-26.014-0.146c-8.111-8.111-6.137-20.021-0.072-26.086c3.908-3.908,9.059-5.991,14.357-5.517
			c0.402,0.037,0.73,0.365,0.73,0.804v5.918c0,0.365-0.328,0.84-0.805,0.73c-2.812-0.475-6.648,0.293-9.352,2.997
			c-4.129,4.128-3.654,11.105,0.766,15.526c4.312,4.311,11.4,4.896,15.455,0.84c1.461-1.461,2.631-3.288,3.215-5.187l-3.252-3.252
			l-2.703,2.702c-0.328,0.33-0.768,0.33-1.059,0.037l-2.887-2.887c-0.293-0.292-0.293-0.73,0.037-1.059l8.037-8.038
			C226.774,179.088,227.214,179.088,227.505,179.38z"/>
		<path d="M248.37,176.71c-0.365,0-0.73-0.366-0.73-0.73l-0.072-5.772c0-0.365,0.328-0.694,0.693-0.768
			c1.242-0.146,4.529-0.657,8.109-4.237c1.535-1.536,3.729-4.97,1.756-6.942c-1.463-1.461-3.215-0.803-7.49,2.082
			c-8.695,5.847-13.736,5.262-17.281,1.717c-3.178-3.178-5.223-10.484,1.863-17.571c4.932-4.933,9.426-6.065,12.822-6.468
			c0.477-0.037,0.842,0.33,0.842,0.768l0.146,5.846c-0.035,0.402-0.256,0.693-0.621,0.766c-2.119,0.295-4.969,1.316-7.746,4.094
			c-2.631,2.629-3.508,5.114-2.082,6.539c1.498,1.498,3.689,0.84,7.855-1.937c7.818-5.406,12.971-5.808,17.316-1.46
			c3.215,3.215,5.299,10.338-2.191,17.828C257.722,174.299,253.558,176.71,248.37,176.71z"/>
		<path d="M261.306,144.631c-7.234-7.234-7.268-18.962-0.035-26.196c7.197-7.197,18.924-7.161,26.158,0.072
			c7.197,7.197,7.197,18.889,0,26.086C280.194,151.826,268.503,151.826,261.306,144.631z M281.802,124.135
			c-4.457-4.458-11.289-4.934-15.527-0.695c-4.238,4.239-3.799,11.106,0.658,15.563c4.459,4.458,11.289,4.86,15.527,0.622
			S286.259,128.591,281.802,124.135z"/>
		<path d="M289.841,116.094c-7.232-7.234-7.268-18.961-0.033-26.195c7.195-7.197,18.924-7.162,26.156,0.072
			c7.197,7.197,7.197,18.889,0,26.086C308.731,123.291,297.04,123.291,289.841,116.094z M310.339,95.599
			c-4.459-4.458-11.289-4.933-15.527-0.695c-4.24,4.238-3.799,11.106,0.658,15.563s11.289,4.86,15.525,0.622
			C315.233,106.851,314.796,100.056,310.339,95.599z"/>
		<path d="M328.353,53.032l24.514,24.515c0.293,0.292,0.258,0.768-0.035,1.06l-3.252,3.252l-0.584,0.584
			c-0.33,0.329-0.914,0.476-1.426,0.402l-25.244-4.786l15.014,15.015c0.293,0.292,0.293,0.73,0,1.023l-4.566,4.567
			c-0.291,0.292-0.766,0.329-1.059,0.036l-24.516-24.515c-0.291-0.292-0.291-0.804,0-1.096l3.289-3.288l0.766-0.767
			c0.293-0.293,0.914-0.403,1.426-0.33l24.77,4.678l-14.723-14.724c-0.291-0.293-0.328-0.768-0.037-1.06l4.566-4.567
			C327.548,52.74,328.06,52.74,328.353,53.032z"/>
	</g>
</g>
<g id="Layer_2">
</g>
</svg>
