<?xml version="1.0" encoding="utf-8"?>
<!-- Generator: Adobe Illustrator 16.0.0, SVG Export Plug-In . SVG Version: 6.00 Build 0)  -->
<!DOCTYPE svg PUBLIC "-//W3C//DTD SVG 1.1//EN" "http://www.w3.org/Graphics/SVG/1.1/DTD/svg11.dtd">
<svg version="1.1" id="Layer_2" xmlns="http://www.w3.org/2000/svg" xmlns:xlink="http://www.w3.org/1999/xlink" x="0px" y="0px"
	 width="1437px" height="700px" viewBox="0 0 1437 700" enable-background="new 0 0 1437 700" xml:space="preserve">
<polygon fill="#69C7AC" points="1437,193.495 1437,76.828 1360.17,-0.002 1243.503,-0.002 "/>
<polygon fill="#ACEAD3" points="1437,76.827 1437,-0.002 1360.171,-0.002 "/>
<polygon fill="#69C7AC" points="1437,426.83 1437,310.163 1126.835,-0.002 1010.168,-0.002 "/>
<polygon fill="#ACEAD3" points="1437,310.162 1437,193.496 1243.502,-0.002 1126.836,-0.002 "/>
<polygon fill="#69C7AC" points="1437,660.164 1437,543.497 893.501,-0.002 776.834,-0.002 "/>
<polygon fill="#ACEAD3" points="1437,543.496 1437,426.831 1010.168,-0.002 893.502,-0.002 "/>
<polygon fill="#69C7AC" points="660.166,-0.002 543.499,-0.002 1242.072,698.572 1358.739,698.572 "/>
<polygon fill="#ACEAD3" points="1437,660.167 776.833,-0.002 660.166,-0.002 1358.741,698.572 1437,698.572 "/>
<polygon fill="#69C7AC" points="426.832,-0.002 310.165,-0.002 1008.738,698.572 1125.405,698.572 "/>
<polygon fill="#ACEAD3" points="543.499,-0.002 426.832,-0.002 1125.406,698.572 1242.071,698.572 "/>
<polygon fill="#69C7AC" points="892.07,698.572 193.497,-0.002 76.83,-0.002 775.405,698.572 "/>
<polygon fill="#ACEAD3" points="1010.167,700.002 310.164,-0.002 193.497,-0.002 893.502,700.002 "/>
<polygon fill="#69C7AC" points="0,156.502 543.5,700.002 660.167,700.002 0,39.835 "/>
<polygon fill="#ACEAD3" points="0,39.835 660.167,700.002 776.832,700.002 76.83,-0.002 0,-0.002 "/>
<polygon fill="#69C7AC" points="0,389.838 308.734,698.572 425.401,698.572 0,273.171 "/>
<polygon fill="#ACEAD3" points="0,273.171 425.402,698.572 542.067,698.572 0,156.504 "/>
<polygon fill="#69C7AC" points="0,623.172 76.83,700.002 193.497,700.002 0,506.505 "/>
<polygon fill="#ACEAD3" points="0,506.504 192.068,698.572 308.734,698.572 0,389.838 "/>
<polygon fill="#ACEAD3" points="0,623.174 0,700 76.826,700 "/>
</svg>
