<?xml version="1.0" encoding="utf-8"?>
<!-- Generator: Adobe Illustrator 16.0.0, SVG Export Plug-In . SVG Version: 6.00 Build 0)  -->
<!DOCTYPE svg PUBLIC "-//W3C//DTD SVG 1.1//EN" "http://www.w3.org/Graphics/SVG/1.1/DTD/svg11.dtd">
<svg version="1.1" xmlns="http://www.w3.org/2000/svg" xmlns:xlink="http://www.w3.org/1999/xlink" x="0px" y="0px" width="379px"
	 height="295px" viewBox="0 0 379 295" enable-background="new 0 0 379 295" xml:space="preserve">
<g id="Layer_1">
	<path fill="#FFFFFF" d="M186.411,14.923C89.589,14.923,11.1,73.141,11.1,144.957c0,71.817,78.489,130.034,175.311,130.034
		c96.823,0,175.312-58.217,175.312-130.034C361.723,73.141,283.234,14.923,186.411,14.923z"/>
	<linearGradient id="SVGID_1_" gradientUnits="userSpaceOnUse" x1="186.4111" y1="274.9912" x2="186.4111" y2="14.9233">
		<stop  offset="4.583865e-04" style="stop-color:#B89E5A"/>
		<stop  offset="0.3898" style="stop-color:#CEA761"/>
		<stop  offset="0.3972" style="stop-color:#D0A965"/>
		<stop  offset="0.4573" style="stop-color:#DABA84"/>
		<stop  offset="0.5048" style="stop-color:#E0C497"/>
		<stop  offset="0.5333" style="stop-color:#E3C99F"/>
		<stop  offset="0.5592" style="stop-color:#E1C699"/>
		<stop  offset="0.5957" style="stop-color:#DDBE8B"/>
		<stop  offset="0.6382" style="stop-color:#D7B275"/>
		<stop  offset="0.6669" style="stop-color:#D2A863"/>
		<stop  offset="1" style="stop-color:#B99F5D"/>
	</linearGradient>
	<path fill="url(#SVGID_1_)" d="M186.411,14.923C89.589,14.923,11.1,73.141,11.1,144.957c0,71.817,78.489,130.034,175.311,130.034
		c96.823,0,175.312-58.217,175.312-130.034C361.723,73.141,283.234,14.923,186.411,14.923z M186.41,267.536
		c-77.644,0-140.587-54.881-140.587-122.58c0-67.698,62.943-122.579,140.587-122.579c77.646,0,140.588,54.881,140.588,122.579
		C326.998,212.655,264.056,267.536,186.41,267.536z"/>
	<path d="M95.775,181.581l-1.211,1.161l-1.306,0.968l-1.694,1.018l-1.937,1.064c-0.226,1.354-0.387,2.228-0.484,2.612
		c-0.129,0.55-0.371,1.324-0.726,2.323c-0.484,1.26-1.179,2.484-2.082,3.681c-1.13,1.515-2.371,2.644-3.727,3.386
		c-1.387,0.774-2.872,1.162-4.453,1.162c-1.291,0-2.29-0.306-3.001-0.919c-0.742-0.581-1.113-1.403-1.113-2.47
		c0-1.71,0.824-3.275,2.468-4.694c1.453-1.257,3.469-2.534,6.05-3.824l1.743-5.758c-0.838,1.323-2.195,2.564-4.065,3.726
		c-1.872,1.162-3.711,1.742-5.518,1.742c-1.743,0-3.324-0.515-4.744-1.547c-1.42-1.033-2.516-2.47-3.291-4.311
		c-0.807-1.805-1.21-3.901-1.21-6.289c0-2.937,0.628-5.729,1.888-8.372c0.516-1.163,1.226-2.404,2.13-3.729
		c0.677-0.999,1.58-2.064,2.709-3.193c2.097-1.968,4.259-3.485,6.486-4.549c2.323-1.098,4.646-1.646,6.969-1.646
		c1.775,0,3.355,0.338,4.743,1.015c1.387,0.711,2.469,1.694,3.244,2.953c0.774,1.26,1.162,2.711,1.162,4.355
		c0,1.742-0.436,3.387-1.308,4.938c-0.903,1.548-2.082,2.774-3.533,3.678c-1.517,0.935-3.049,1.402-4.598,1.402
		c-0.936,0-1.791-0.176-2.565-0.531c-0.806-0.387-1.403-0.805-1.79-1.259c-0.453-0.645-0.677-1.274-0.677-1.888
		c0-0.645,0.194-1.209,0.581-1.692c0.354-0.485,0.774-0.726,1.258-0.726c0.485,0,0.726,0.272,0.726,0.822
		c0,0.516,0.194,0.902,0.582,1.16c0.354,0.258,0.757,0.388,1.209,0.388c0.613,0,1.241-0.226,1.888-0.678
		c0.645-0.452,1.226-1.097,1.742-1.937c0.547-0.774,0.984-1.646,1.307-2.613c0.291-0.968,0.435-1.936,0.435-2.903
		c0-0.937-0.209-1.759-0.628-2.469c-0.42-0.71-1.001-1.259-1.742-1.645c-0.711-0.388-1.533-0.581-2.469-0.581
		c-1.71,0-3.34,0.581-4.888,1.74c-1.615,1.229-2.985,2.761-4.115,4.6c-1.129,1.776-2.08,3.84-2.855,6.193
		c-0.71,2.163-1.065,4.341-1.065,6.536c0,1.709,0.258,3.179,0.774,4.403c0.485,1.29,1.194,2.258,2.129,2.904
		c0.937,0.678,1.985,1.016,3.146,1.016c1,0,2.017-0.258,3.049-0.776c1.064-0.546,2.065-1.271,3.001-2.177
		c0.967-0.967,1.903-2.161,2.806-3.579l4.454-0.631l0.677,0.047c0.097,0.131,0.145,0.244,0.145,0.342l-0.339,1.209l-0.387,1.113
		l-0.967,3.193l-0.678,2.518c0.774-0.452,1.403-0.84,1.887-1.161c0.484-0.355,0.936-0.71,1.355-1.064
		c0.936-0.775,1.743-1.599,2.42-2.469V181.581z M75.882,195.473c0,0.484,0.146,0.868,0.436,1.161
		c0.291,0.29,0.646,0.435,1.065,0.435c1.291,0,2.258-0.709,2.904-2.13c0.646-1.387,1.226-3.228,1.742-5.518
		C77.931,191.486,75.882,193.502,75.882,195.473z"/>
	<path d="M95.241,179.45c1.356-1.387,2.469-2.757,3.341-4.113c-1.356-0.645-2.034-1.53-2.034-2.662l0.243-1.548
		c0.193-0.807,0.451-1.499,0.774-2.081c0.354-0.581,0.839-1.113,1.453-1.599c0.645-0.481,1.371-0.726,2.177-0.726
		c1.227,0,1.839,0.63,1.839,1.889c0,1.032-0.355,2.452-1.064,4.259c1.42-0.194,2.662-0.773,3.727-1.742
		c0.999-0.903,2.048-2.323,3.145-4.258l2.13-0.1l-2.179,6.051l-1.306,3.775l-0.726,2.419l-0.145,1.452
		c0,0.71,0.162,1.228,0.484,1.55c0.291,0.419,0.693,0.629,1.209,0.629c0.29,0,0.629-0.081,1.017-0.241
		c0.387-0.162,0.886-0.533,1.5-1.113l2.614-2.42v2.71c-1.421,1.389-2.663,2.498-3.727,3.34c-1.033,0.808-2.017,1.435-2.952,1.887
		c-0.904,0.387-1.727,0.581-2.468,0.581c-1.002,0-1.824-0.419-2.468-1.258c-0.646-0.839-0.968-1.823-0.968-2.952
		c0-1.097,0.29-2.389,0.871-3.873c0.549-1.388,1.452-3.08,2.71-5.081c-1.098,0.581-2.372,0.999-3.824,1.258
		c-1,1.84-2.613,3.871-4.839,6.099h-0.534V179.45z"/>
	<path d="M131.105,181.581c-1.001,0.969-1.727,1.631-2.179,1.984c-0.839,0.742-1.453,1.241-1.839,1.501
		c-1.129,0.839-2.226,1.42-3.292,1.741c-0.709,0.194-1.242,0.323-1.596,0.387c-0.517,0.1-1.098,0.147-1.743,0.147
		c-2.161,0-3.889-0.695-5.178-2.082c-1.323-1.388-1.984-3.178-1.984-5.373c0-1.612,0.322-3.243,0.968-4.888
		c0.645-1.614,1.484-3.033,2.516-4.26c1.065-1.194,2.258-2.161,3.583-2.905c1.289-0.707,2.662-1.064,4.114-1.064
		c1.386,0,2.549,0.373,3.485,1.114c0.902,0.71,1.354,1.711,1.354,3c0,1.421-0.565,2.646-1.693,3.678
		c-1.194,1.035-2.438,1.841-3.727,2.422c-1.162,0.548-2.824,1.162-4.986,1.839c0.354,1.484,0.935,2.63,1.743,3.436
		c0.871,0.774,1.936,1.161,3.194,1.161c0.742,0,1.516-0.178,2.324-0.531c0.741-0.355,1.419-0.79,2.032-1.307l2.905-2.71V181.581z
		 M123.264,174.806c1-0.999,1.501-2.291,1.501-3.872c0-0.742-0.146-1.306-0.436-1.693c-0.29-0.389-0.694-0.582-1.21-0.582
		c-0.549,0-1.194,0.339-1.937,1.017c-0.774,0.774-1.372,1.774-1.791,3c-0.451,1.357-0.677,2.873-0.677,4.55
		C120.714,176.644,122.231,175.837,123.264,174.806z"/>
	<path d="M156.319,181.581c-0.29,0.258-0.581,0.517-0.871,0.774c-0.967,0.902-1.678,1.549-2.13,1.936
		c-0.419,0.388-1,0.87-1.742,1.451l-0.484,0.389c-1.097,0.805-2.195,1.211-3.291,1.211c-2.356,0-3.533-2.195-3.533-6.585
		c-1.582,2.259-3.05,3.922-4.404,4.985c-1.356,1.065-2.71,1.6-4.066,1.6c-0.936,0-1.759-0.309-2.468-0.922
		c-0.806-0.613-1.42-1.436-1.839-2.467c-0.453-1.065-0.678-2.178-0.678-3.341c0-1.87,0.418-3.693,1.258-5.469
		c0.839-1.71,1.903-3.193,3.194-4.452c1.323-1.259,2.662-2.243,4.018-2.952c1.386-0.708,2.677-1.064,3.872-1.064
		c1.967,0,3.339,0.902,4.114,2.709l4.84-2.662h1.307l-2.081,6.923l-1.065,4.017c-0.355,1.58-0.533,2.629-0.533,3.145
		c0,0.646,0.146,1.146,0.435,1.501c0.258,0.356,0.597,0.534,1.018,0.534c0.58,0,1.129-0.243,1.646-0.727
		c0.257-0.225,0.644-0.549,1.161-0.97c0.032-0.063,0.112-0.144,0.242-0.243c0.387-0.353,1.08-1.03,2.081-2.03V181.581z
		 M140.251,170.547c-1.033,1.322-1.855,2.887-2.469,4.693c-0.646,1.872-0.967,3.47-0.967,4.791c0,0.809,0.225,1.484,0.677,2.034
		c0.452,0.549,0.968,0.822,1.549,0.822c1.064,0,2.113-0.66,3.145-1.986c1.033-1.32,1.855-2.868,2.469-4.644
		c0.612-1.743,0.919-3.356,0.919-4.841c0-0.805-0.177-1.483-0.532-2.033c-0.387-0.515-0.936-0.773-1.646-0.773
		C142.299,168.61,141.251,169.257,140.251,170.547z"/>
	<path d="M161.691,159.994l6.341-1.306l-2.42,8.229l3.291-0.195l-0.774,3.632l-3.677,0.29l-0.823,2.661
		c-0.13,0.387-0.323,1.018-0.581,1.886l-0.049,0.146c-0.258,1.034-0.419,1.713-0.484,2.032c-0.291,1.162-0.435,2.146-0.435,2.953
		c0,0.743,0.194,1.339,0.582,1.792c0.354,0.483,0.822,0.727,1.403,0.727c0.903,0,1.743-0.291,2.517-0.872
		c0.612-0.453,1.725-1.483,3.339-3.098v2.71c-2.032,2.032-3.775,3.5-5.227,4.404c-1.42,0.903-2.775,1.356-4.065,1.356
		c-1.356,0-2.454-0.583-3.292-1.744c-0.839-1.194-1.259-2.678-1.259-4.453c0-1.161,0.113-2.209,0.339-3.145
		c0.065-0.355,0.193-0.888,0.387-1.598l0.146-0.532c0.128-0.517,0.273-1.048,0.435-1.597l0.919-3.194l-1.839,0.096l0.774-3.728
		l2.227-0.096L161.691,159.994z"/>
	<path d="M201.509,164.166l-0.332-0.375l-0.166-0.83c-0.139-1.024-0.373-1.857-0.706-2.493c-0.361-0.637-0.873-1.179-1.537-1.621
		c-0.666-0.416-1.372-0.623-2.12-0.623c-0.721,0-1.371,0.166-1.954,0.498c-0.359,0.224-0.623,0.416-0.789,0.582
		s-0.388,0.456-0.665,0.873c-0.332,0.608-0.498,1.272-0.498,1.994c0,1.109,0.359,2.146,1.08,3.117
		c0.665,0.859,1.801,2.063,3.408,3.614c1.605,1.579,2.825,2.95,3.656,4.114c0.416,0.61,0.721,1.221,0.914,1.829
		c0.194,0.582,0.291,1.275,0.291,2.077c0,1.636-0.472,3.133-1.412,4.488c-0.942,1.386-2.245,2.508-3.907,3.367
		c-1.606,0.83-3.324,1.246-5.152,1.246c-1.606,0-3.033-0.276-4.28-0.832c-1.247-0.553-2.16-1.162-2.743-1.828
		c-0.637-0.72-0.956-1.245-0.956-1.578c0-0.389,0.417-1.261,1.248-2.62c0.498-0.856,0.886-1.452,1.163-1.785
		c0.026-0.056,0.11-0.152,0.25-0.291c0.471,0,0.803,0.139,0.997,0.415c0.192,0.277,0.29,0.693,0.29,1.247
		c0.027,0.222,0.069,0.553,0.125,0.997l0.041,0.25c0.027,0.306,0.152,0.816,0.375,1.538c0.166,0.692,0.594,1.343,1.288,1.951
		c0.665,0.61,1.634,0.915,2.909,0.915c0.72,0,1.385-0.124,1.994-0.373c0.583-0.25,1.163-0.61,1.745-1.081
		c0.526-0.472,0.928-1.012,1.205-1.621c0.277-0.555,0.416-1.177,0.416-1.87c0-1.053-0.319-1.98-0.956-2.784
		c-0.609-0.803-1.69-1.925-3.241-3.365c-1.413-1.33-2.562-2.674-3.449-4.032c-0.776-1.189-1.163-2.604-1.163-4.238
		c0-1.164,0.317-2.424,0.955-3.781c0.637-1.302,1.621-2.41,2.95-3.324c1.302-0.887,2.896-1.329,4.779-1.329
		c1.303,0,2.536,0.235,3.699,0.705c1.078,0.499,1.896,1.024,2.451,1.58c0.525,0.525,0.789,0.983,0.789,1.37
		c0,0.526-0.871,1.829-2.617,3.907H201.509z"/>
	<path d="M206.744,186.024c-0.165-1.385-0.249-2.923-0.249-4.613c0-2.159,0.14-4.071,0.416-5.735
		c0.11-0.773,0.276-1.662,0.498-2.659c0.25-1.135,0.485-2.021,0.708-2.659c0.248-0.749,0.566-1.634,0.955-2.66
		c0.443-1.135,0.845-2.077,1.206-2.824c0.884-1.912,1.925-3.838,3.116-5.778c1.855-0.772,3.352-1.343,4.487-1.703l2.411-0.748
		c0.358,0,0.665,0.292,0.914,0.873c0.222,0.609,0.332,1.316,0.332,2.118c0,0.943-0.181,1.941-0.54,2.993
		c-0.361,1.081-0.942,2.245-1.745,3.49c-0.443,0.776-1.04,1.676-1.787,2.701c-0.165,0.194-0.624,0.818-1.372,1.871l3.617-1.995
		c0.581-0.249,1.176-0.375,1.786-0.375c0.72,0,1.288,0.25,1.703,0.749c0.416,0.497,0.623,1.15,0.623,1.954
		c0,0.415-0.055,0.858-0.166,1.328c-0.028,0.112-0.084,0.347-0.165,0.707c-0.029,0.25-0.071,0.457-0.125,0.623
		c-0.112,0.307-0.236,0.721-0.375,1.247l-0.042,0.082l-0.871,2.494l-0.873,2.576c-0.196,0.609-0.291,1.082-0.291,1.414
		c0,0.304,0.095,0.554,0.291,0.747c0.165,0.249,0.374,0.373,0.622,0.373c0.416,0,1.024-0.317,1.829-0.955
		c0.804-0.636,1.786-1.62,2.951-2.949v2.326c-1.607,1.691-3.062,2.938-4.364,3.741c-1.274,0.83-2.452,1.246-3.532,1.246
		c-0.859,0-1.607-0.318-2.244-0.956s-0.955-1.427-0.955-2.369c0-1.578,0.624-3.865,1.87-6.855c0.665-1.498,0.996-2.535,0.996-3.117
		c0-0.194-0.068-0.389-0.207-0.582c-0.11-0.166-0.305-0.249-0.581-0.249c-0.582,0-1.4,0.4-2.452,1.204
		c-0.97,0.693-2.023,1.663-3.158,2.909c-0.111,0.776-0.236,1.524-0.374,2.244c-0.11,0.638-0.167,1.304-0.167,1.995
		c-0.109,0.998-0.165,2.576-0.165,4.737L206.744,186.024z M219.793,160.301c0-0.415-0.054-0.72-0.166-0.914
		c-0.111-0.194-0.276-0.292-0.499-0.292c-0.526,0-1.136,0.556-1.826,1.665c-0.777,1.162-1.608,2.77-2.494,4.819
		c-0.804,2.021-1.554,4.404-2.245,7.147C217.384,167.103,219.793,162.961,219.793,160.301z"/>
	<path d="M244.81,181.037c-1.22,1.108-2.396,1.662-3.532,1.662c-0.166,0-0.388-0.026-0.664-0.084h-0.041
		c-0.278-0.055-0.516-0.124-0.708-0.206c-0.473-0.14-0.971-0.417-1.496-0.832c-0.942,1.441-1.98,2.534-3.116,3.283
		c-1.108,0.748-2.3,1.123-3.574,1.123c-1.025,0-1.939-0.277-2.742-0.833c-0.804-0.552-1.427-1.287-1.87-2.201
		c-0.442-0.941-0.664-2.078-0.664-3.407c0-2.052,0.512-3.935,1.537-5.652c1.054-1.745,2.41-3.115,4.072-4.114
		c1.717-0.997,3.559-1.496,5.527-1.496c1.135,0,1.967,0.126,2.493,0.374c0.553,0.249,0.885,0.514,0.997,0.789
		c0.054,0.14,0.083,0.263,0.083,0.374c0.027,0.112,0.056,0.195,0.084,0.25c0.025,0.083,0.041,0.333,0.041,0.748
		c0,2.438-0.693,5.541-2.078,9.309c0.72,0.638,1.44,0.955,2.161,0.955c0.914,0,2.078-0.789,3.49-2.367V181.037z M235.293,175.303
		c0-1.137,0.234-2.146,0.705-3.033c0.444-0.831,1.15-1.689,2.121-2.576l-0.874-0.085c-1.355,0-2.423,0.473-3.198,1.415
		c-0.859,0.969-1.47,2.174-1.829,3.614c-0.388,1.496-0.581,2.881-0.581,4.155c0,1.413,0.235,2.479,0.706,3.199
		c0.472,0.749,1.053,1.123,1.745,1.123c0.971,0,2.009-0.886,3.117-2.661C235.931,178.933,235.293,177.214,235.293,175.303z"/>
	<path d="M244.353,179.208c1.329-1.412,2.548-3.046,3.657-4.903c1.189-1.994,2.09-3.725,2.7-5.193l4.571-0.832l-0.789,3.491
		c0.635-0.747,1.287-1.413,1.952-1.995c0.666-0.554,1.206-0.914,1.622-1.08c0.109-0.027,0.222-0.055,0.332-0.083
		c0.332-0.109,0.567-0.18,0.705-0.207c0.39-0.057,0.735-0.085,1.038-0.085c0.917,0,1.718,0.225,2.412,0.666
		c0.721,0.444,1.26,1.108,1.622,1.995c0.386,0.914,0.581,1.926,0.581,3.032c0,1.469-0.264,2.909-0.79,4.323
		c-0.527,1.412-1.289,2.729-2.285,3.946c-0.971,1.192-2.05,2.093-3.242,2.702c-1.191,0.666-2.354,0.998-3.489,0.998l-1.04-0.085
		l-0.706-0.206l-0.624-0.375l-0.789-0.581l-1.122,5.276c-0.305,1.551-0.555,3.228-0.749,5.03l-5.151,0.913l0.747-4.655l0.874-4.985
		l1.038-5.029l0.997-4.57l-0.748,0.956l-1.621,2.077l-1.246,1.288h-0.457V179.208z M252.164,182.615
		c0.416,0.695,0.817,1.15,1.205,1.372c0.388,0.25,0.762,0.375,1.123,0.375c0.996,0,1.896-0.526,2.701-1.58
		c0.748-0.996,1.356-2.216,1.828-3.657c0.441-1.384,0.664-2.7,0.664-3.946c0-1.082-0.208-1.926-0.623-2.536
		c-0.415-0.637-0.97-0.955-1.661-0.955c-0.693,0-1.399,0.374-2.12,1.122c-0.388,0.416-0.721,0.929-0.996,1.536
		c-0.25,0.583-0.541,1.581-0.874,2.994L252.164,182.615z"/>
	<path d="M264.977,179.208c1.331-1.412,2.551-3.046,3.658-4.903c1.19-1.994,2.092-3.725,2.699-5.193l4.573-0.832l-0.792,3.491
		c0.638-0.747,1.291-1.413,1.955-1.995c0.664-0.554,1.207-0.914,1.621-1.08c0.11-0.027,0.22-0.055,0.332-0.083
		c0.332-0.109,0.566-0.18,0.706-0.207c0.388-0.057,0.733-0.085,1.039-0.085c0.914,0,1.717,0.225,2.41,0.666
		c0.721,0.444,1.26,1.108,1.621,1.995c0.387,0.914,0.582,1.926,0.582,3.032c0,1.469-0.265,2.909-0.79,4.323
		c-0.526,1.412-1.289,2.729-2.286,3.946c-0.969,1.192-2.051,2.093-3.24,2.702c-1.191,0.666-2.355,0.998-3.491,0.998l-1.04-0.085
		l-0.706-0.206l-0.623-0.375l-0.789-0.581l-1.123,5.276c-0.304,1.551-0.556,3.228-0.748,5.03l-5.154,0.913l0.752-4.655l0.87-4.985
		l1.041-5.029l0.998-4.57l-0.752,0.956l-1.618,2.077l-1.246,1.288h-0.459V179.208z M272.79,182.615
		c0.415,0.695,0.815,1.15,1.204,1.372c0.389,0.25,0.762,0.375,1.121,0.375c0.999,0,1.898-0.526,2.702-1.58
		c0.749-0.996,1.357-2.216,1.829-3.657c0.442-1.384,0.664-2.7,0.664-3.946c0-1.082-0.207-1.926-0.622-2.536
		c-0.416-0.637-0.97-0.955-1.664-0.955c-0.691,0-1.398,0.374-2.117,1.122c-0.39,0.416-0.721,0.929-0.999,1.536
		c-0.247,0.583-0.541,1.581-0.872,2.994L272.79,182.615z"/>
	<path d="M301.997,181.037c-0.86,0.832-1.483,1.4-1.869,1.704c-0.72,0.638-1.247,1.065-1.579,1.289
		c-0.97,0.72-1.912,1.219-2.826,1.495c-0.609,0.167-1.065,0.277-1.372,0.332c-0.443,0.085-0.942,0.126-1.493,0.126
		c-1.858,0-3.341-0.597-4.448-1.787c-1.136-1.191-1.703-2.729-1.703-4.613c0-1.385,0.277-2.785,0.831-4.197
		c0.553-1.386,1.272-2.604,2.16-3.657c0.915-1.025,1.938-1.855,3.076-2.494c1.106-0.607,2.285-0.914,3.531-0.914
		c1.191,0,2.188,0.32,2.994,0.956c0.773,0.61,1.161,1.47,1.161,2.576c0,1.22-0.485,2.272-1.455,3.158
		c-1.024,0.889-2.091,1.58-3.199,2.079c-0.997,0.471-2.424,0.998-4.279,1.579c0.305,1.274,0.804,2.258,1.494,2.949
		c0.749,0.665,1.663,0.997,2.744,0.997c0.636,0,1.302-0.152,1.994-0.456c0.639-0.305,1.22-0.678,1.746-1.122l2.492-2.326V181.037z
		 M295.266,175.22c0.859-0.857,1.289-1.967,1.289-3.324c0-0.638-0.126-1.121-0.374-1.454c-0.251-0.334-0.596-0.5-1.039-0.5
		c-0.472,0-1.026,0.291-1.661,0.873c-0.667,0.665-1.181,1.523-1.54,2.576c-0.388,1.165-0.581,2.467-0.581,3.906
		C293.077,176.798,294.379,176.105,295.266,175.22z"/>
	<path d="M301.54,179.208c1.163-1.19,2.119-2.367,2.868-3.532c-1.165-0.553-1.746-1.313-1.746-2.285l0.207-1.329
		c0.167-0.692,0.389-1.287,0.667-1.787c0.304-0.499,0.718-0.956,1.246-1.372c0.554-0.414,1.177-0.623,1.869-0.623
		c1.052,0,1.579,0.54,1.579,1.621c0,0.887-0.306,2.105-0.913,3.657c1.218-0.167,2.283-0.664,3.199-1.496
		c0.858-0.775,1.76-1.995,2.701-3.656l1.827-0.085l-1.87,5.195l-1.12,3.241l-0.623,2.077l-0.125,1.247
		c0,0.609,0.139,1.054,0.415,1.33c0.249,0.36,0.596,0.54,1.038,0.54c0.249,0,0.543-0.069,0.874-0.207
		c0.333-0.139,0.76-0.458,1.287-0.956l2.245-2.077v2.326c-1.22,1.192-2.286,2.146-3.199,2.868c-0.888,0.693-1.732,1.231-2.535,1.62
		c-0.777,0.332-1.483,0.499-2.121,0.499c-0.858,0-1.563-0.36-2.117-1.08c-0.556-0.721-0.834-1.565-0.834-2.535
		c0-0.941,0.253-2.051,0.749-3.325c0.471-1.191,1.246-2.645,2.329-4.363c-0.943,0.499-2.037,0.858-3.285,1.08
		c-0.858,1.58-2.243,3.324-4.155,5.236h-0.457V179.208z"/>
	<polygon fill="#D6B279" points="197.211,192.833 223.043,230.992 221.773,234.855 211.186,234.855 194.67,205.391 192.129,208.773 
		207.375,234.855 207.798,240.652 185.68,257.074 163.561,240.652 163.984,234.855 179.229,208.773 176.688,205.391 
		160.172,234.855 149.585,234.855 148.315,230.992 174.147,192.833 181.488,192.833 185.68,197.622 189.487,192.833 	"/>
	<path fill="#D6B279" d="M185.68,98.397h-3.062l-13.6,29.946c0,0-3.67-6.549-7.575-15.455c-2.964-6.763-2.721-14.909-0.847-21.736
		c2.681-9.767,4.658-13.524,4.658-13.524H74.205l10.819,15.007h57.503l1.129,3.655H87.659l9.19,12.749h53.865l2.824,5.242h-52.909
		l9.353,12.974h51.18l1.411,2.7l-50.188,0.632l8.828,12.248h50.395l2.541,5.797h6.674l4.667,5.619l4.5-5.619h7.223l2.541-5.797
		h50.395l8.829-12.248l-50.188-0.632l1.41-2.7h51.18l9.354-12.974h-52.91l2.823-5.242h53.865l9.19-12.749h-55.997l1.13-3.655h57.501
		l10.82-15.007h-91.049c0,0,1.977,3.757,4.658,13.524c1.874,6.827,2.117,14.973-0.848,21.736
		c-3.903,8.906-7.574,15.455-7.574,15.455l-8.556-18.838h7.042l2.117,1.933l3.529-6.279l-4.8-4.507h-3.952l-2.259-2.254H185.68"/>
	<path fill="none" stroke="#000000" stroke-miterlimit="10" d="M147.308,72"/>
	<path d="M258.07,180.381c0,0-0.523,0.588-1.094,0.932s-1.942,1.035-3.008,1.438s-1.781,0.344-1.781,0.344l0.656-1.719
		c0,0,1.531-0.426,2.531-0.994s1.313-0.861,1.602-1.173s0.867,0.511,0.867,0.511L258.07,180.381z"/>
	<linearGradient id="SVGID_2_" gradientUnits="userSpaceOnUse" x1="74.2051" y1="115.9385" x2="297.1533" y2="115.9385">
		<stop  offset="4.583865e-04" style="stop-color:#B89E5A"/>
		<stop  offset="0.1511" style="stop-color:#B9A05D;stop-opacity:0.8493"/>
		<stop  offset="0.2955" style="stop-color:#BDA466;stop-opacity:0.7049"/>
		<stop  offset="0.4374" style="stop-color:#C3AC74;stop-opacity:0.5629"/>
		<stop  offset="0.5779" style="stop-color:#CCB887;stop-opacity:0.4223"/>
		<stop  offset="0.7172" style="stop-color:#D8C8A2;stop-opacity:0.2829"/>
		<stop  offset="0.8558" style="stop-color:#E7DDC7;stop-opacity:0.1443"/>
		<stop  offset="0.9914" style="stop-color:#FDFBF9;stop-opacity:0.0086"/>
		<stop  offset="1" style="stop-color:#FFFFFF;stop-opacity:0"/>
	</linearGradient>
	<path fill="url(#SVGID_2_)" d="M185.68,98.397h-3.062l-13.6,29.946c0,0-3.67-6.549-7.574-15.455
		c-2.965-6.763-2.722-14.909-0.848-21.736c2.682-9.767,4.658-13.524,4.658-13.524H74.205l10.819,15.007h57.503l1.129,3.655H87.659
		l9.19,12.749h53.866l2.823,5.242h-52.909l9.353,12.974h51.18l1.411,2.7l-50.188,0.632l8.828,12.248h50.395l2.541,5.797h6.674
		l4.667,5.619l4.5-5.619h7.223l2.541-5.797h50.395l8.829-12.248l-50.188-0.632l1.41-2.7h51.18l9.354-12.974h-52.91l2.823-5.242
		h53.865l9.19-12.749h-55.997l1.13-3.655h57.501l10.82-15.007h-91.049c0,0,1.977,3.757,4.658,13.524
		c1.874,6.827,2.117,14.973-0.848,21.736c-3.903,8.906-7.574,15.455-7.574,15.455l-8.556-18.838h7.042l2.117,1.933l3.529-6.279
		l-4.8-4.507h-3.952l-2.259-2.254H185.68"/>
	<linearGradient id="SVGID_3_" gradientUnits="userSpaceOnUse" x1="148.3145" y1="224.9531" x2="223.043" y2="224.9531">
		<stop  offset="4.583865e-04" style="stop-color:#B89E5A"/>
		<stop  offset="0.1511" style="stop-color:#B9A05D;stop-opacity:0.8493"/>
		<stop  offset="0.2955" style="stop-color:#BDA466;stop-opacity:0.7049"/>
		<stop  offset="0.4374" style="stop-color:#C3AC74;stop-opacity:0.5629"/>
		<stop  offset="0.5779" style="stop-color:#CCB887;stop-opacity:0.4223"/>
		<stop  offset="0.7172" style="stop-color:#D8C8A2;stop-opacity:0.2829"/>
		<stop  offset="0.8558" style="stop-color:#E7DDC7;stop-opacity:0.1443"/>
		<stop  offset="0.9914" style="stop-color:#FDFBF9;stop-opacity:0.0086"/>
		<stop  offset="1" style="stop-color:#FFFFFF;stop-opacity:0"/>
	</linearGradient>
	<polygon fill="url(#SVGID_3_)" points="197.211,192.833 223.043,230.992 221.773,234.855 211.186,234.855 194.67,205.391 
		192.129,208.773 207.375,234.855 207.798,240.652 185.68,257.074 163.561,240.652 163.984,234.855 179.229,208.773 
		176.688,205.391 160.172,234.855 149.586,234.855 148.314,230.992 174.147,192.833 181.488,192.833 185.68,197.622 
		189.487,192.833 	"/>
	<linearGradient id="SVGID_4_" gradientUnits="userSpaceOnUse" x1="74.2051" y1="115.939" x2="185.6797" y2="115.939">
		<stop  offset="0.3973" style="stop-color:#FFFFFF;stop-opacity:0"/>
		<stop  offset="0.8137" style="stop-color:#DBBD89;stop-opacity:0.6909"/>
		<stop  offset="1" style="stop-color:#CEA761"/>
	</linearGradient>
	<path fill="url(#SVGID_4_)" d="M185.68,98.397h-3.062l-13.6,29.946c0,0-3.67-6.549-7.574-15.455
		c-2.965-6.764-2.722-14.91-0.848-21.737c2.682-9.767,4.658-13.524,4.658-13.524H74.205l10.819,15.007h57.503l1.129,3.655H87.659
		l9.19,12.749h53.866l2.823,5.242h-52.909l9.353,12.973h51.18l1.411,2.701l-50.188,0.631l8.828,12.248h50.395l2.541,5.797h6.674
		l4.667,5.619L185.68,98.397z"/>
	<linearGradient id="SVGID_5_" gradientUnits="userSpaceOnUse" x1="148.3149" y1="224.9531" x2="185.6797" y2="224.9531">
		<stop  offset="0.3973" style="stop-color:#FFFFFF;stop-opacity:0"/>
		<stop  offset="0.8137" style="stop-color:#DBBD89;stop-opacity:0.6909"/>
		<stop  offset="1" style="stop-color:#CEA761"/>
	</linearGradient>
	<polygon fill="url(#SVGID_5_)" points="185.68,197.622 181.489,192.833 174.148,192.833 148.315,230.991 149.586,234.854 
		160.172,234.854 176.689,205.39 179.23,208.772 163.985,234.854 163.561,240.651 185.68,257.073 	"/>
</g>
<g id="Layer_2">
</g>
</svg>
